This is from Masterpiece Mystery.                                                                      

                                                                                                    

The intro,credits,prologue,extras and next time are in separate files. 

 										

													

Enjoy and please share.										

													

													

													

		

********************************************************************************			

											

Masterpiece_Mystery_The_Clocks_720p.hdtv.x264-20110626_TTL.mkv
													

Format                           : Matroska
File size                        : 1.94 GiB
Duration                         : 1h 19mn
Overall bit rate                 : 3 468 Kbps
Movie name                       : Masterpiece_Mystery_The_Clocks_720p_20110626_TTL.mpg
Writing application              : SUPER(C)   
Writing library                  : SUPER(C)   

Video
ID                               : 1
Format                           : AVC
Format/Info                      : Advanced Video Codec
Format profile                   : Baseline@L1.3
Format settings, CABAC           : No
Format settings, ReFrames        : 1 frame
Muxing mode                      : Container profile=Unknown@1.3
Codec ID                         : V_MPEG4/ISO/AVC
Duration                         : 1h 19mn
Bit rate                         : 3 143 Kbps
Width                            : 1 280 pixels
Height                           : 720 pixels
Display aspect ratio             : 16:9
Frame rate                       : 29.970 fps
Resolution                       : 8 bits
Colorimetry                      : 4:2:0
Scan type                        : Progressive
Bits/(Pixel*Frame)               : 0.114
Stream size                      : 1.75 GiB (91%)

Audio
ID                               : 2
Format                           : AC-3
Format/Info                      : Audio Coding 3
Codec ID                         : A_AC3
Duration                         : 1h 19mn
Bit rate mode                    : Constant
Bit rate                         : 256 Kbps
Channel(s)                       : 2 channels
Channel positions                : L R
Sampling rate                    : 48.0 KHz
Resolution                       : 16 bits
Stream size                      : 146 MiB (7%)



